<?xml version="1.0" encoding="UTF-8"?>
<svg width="20mm" height="20mm" version="1.1" viewBox="0 0 20 20" xmlns="http://www.w3.org/2000/svg" xmlns:cc="http://creativecommons.org/ns#" xmlns:dc="http://purl.org/dc/elements/1.1/" xmlns:rdf="http://www.w3.org/1999/02/22-rdf-syntax-ns#">
<metadata>
<rdf:RDF>
<cc:Work rdf:about="">
<dc:format>image/svg+xml</dc:format>
<dc:type rdf:resource="http://purl.org/dc/dcmitype/StillImage"/>
<dc:title/>
</cc:Work>
</rdf:RDF>
</metadata>
<g transform="translate(-18.444 -96.374)">
<path d="m28.882 115.66c-0.80557-0.9035-0.80557-1.7263 0-2.6298 0.50976-0.57173 0.8942-0.71212 1.95-0.71212 2.4259 0 3.6837-1.6324 2.4525-3.1831-0.39229-0.49412-0.7692-0.60068-2.1245-0.60068-2.7466 0-4.1084-0.7256-4.1286-2.1998-0.01485-1.0876 0.88414-1.8665 2.3551-2.0405 1.5408-0.18233 2.3325-0.86849 2.3325-2.0215 0-1.3386-0.9695-1.8463-3.5261-1.8463-2.0514 0-3.2183-0.29022-3.694-0.91883-0.39359-0.52004-0.2519-1.9119 0.2603-2.557 0.47442-0.59755 0.63498-0.61948 3.906-0.53311 3.2696 0.08632 3.4704 0.12629 4.8359 0.96288 2.5613 1.5692 3.6826 4.632 2.562 6.9981-0.44298 0.93533-0.43163 0.98267 0.41438 1.729 2.7496 2.4257 2.5931 6.6121-0.32844 8.7854-1.4604 1.0864-2.7377 1.4795-4.8064 1.4795-1.6075 0-1.9016-0.0851-2.4607-0.71212z" fill="#383f51" stroke-width=".28775"/>
<path d="m19.079 115.66c-0.61248-0.68694-0.63494-1.0198-0.63494-9.4124v-8.7002l0.70904-0.58764c0.5809-0.48145 1.0764-0.58766 2.7415-0.58766h2.0325l-0.4439 0.93726c-0.34905 0.73701-0.4439 2.4405-0.4439 7.973v7.0357h2.4508c2.2291 0 2.9608 0.23054 2.1445 0.67568-0.39869 0.21737-0.39869 2.4853 0 2.7027 0.91996 0.50159-0.06089 0.67567-3.8072 0.67567-4.079 0-4.1188-6e-3 -4.7484-0.71212z" fill="#30e3ca" stroke-width=".28775"/>
<text x="41.957169" y="153.54347" fill="#000000" font-family="sans-serif" font-size="10.583px" stroke-width=".26458" style="line-height:1.25" xml:space="preserve"><tspan x="41.957169" y="153.54347" font-family="Jomolhari" stroke-width=".26458"/></text>
</g>
</svg>

