<?xml version="1.0" encoding="UTF-8"?>
<svg width="145.05mm" height="31.201mm" version="1.1" viewBox="0 0 145.05 31.201" xmlns="http://www.w3.org/2000/svg" xmlns:cc="http://creativecommons.org/ns#" xmlns:dc="http://purl.org/dc/elements/1.1/" xmlns:rdf="http://www.w3.org/1999/02/22-rdf-syntax-ns#">
<metadata>
<rdf:RDF>
<cc:Work rdf:about="">
<dc:format>image/svg+xml</dc:format>
<dc:type rdf:resource="http://purl.org/dc/dcmitype/StillImage"/>
<dc:title/>
</cc:Work>
</rdf:RDF>
</metadata>
<g transform="translate(-18.367 -85.297)" stroke-width=".26458">
<path d="m27.459 115.79c-0.69574-0.88449-0.69574-1.69 0-2.5745 0.44026-0.5597 0.77229-0.69714 1.6841-0.69714 2.0952 0 3.1814-1.5981 2.1181-3.1161-0.33881-0.48372-0.66433-0.58804-1.8349-0.58804-2.3721 0-3.5483-0.71033-3.5657-2.1535-0.01283-1.0647 0.76359-1.8272 2.034-1.9976 1.3307-0.17849 2.0145-0.85021 2.0145-1.979 0-1.3105-0.83732-1.8074-3.0453-1.8074-1.7717 0-2.7795-0.28412-3.1904-0.8995-0.33993-0.5091-0.21756-1.8717 0.22481-2.5032 0.40974-0.58498 0.54841-0.60644 3.3734-0.52189 2.8238 0.0845 2.9972 0.12363 4.1765 0.94262 2.2121 1.5362 3.1805 4.5346 2.2127 6.8508-0.38258 0.91565-0.37278 0.96199 0.35788 1.6927 2.3747 2.3747 2.2395 6.473-0.28366 8.6005-1.2613 1.0635-2.3644 1.4484-4.1511 1.4484-1.3883 0-1.6423-0.0833-2.1252-0.69714zm17.523 0.22008c-3.0107-1.0745-5.399-3.4838-6.281-6.3362-0.173-0.55949-0.13915-0.57846 0.55861-0.31317 0.88679 0.33716 2.2879 0.12166 2.7385-0.42117 0.42052-0.50669 0.78794-0.49755 0.78794 0.0196 0 0.22521 0.56555 0.97265 1.2568 1.661 2.5071 2.4966 5.5928 2.5281 8.0419 0.082 2.4507-2.4477 2.3825-5.8385-0.1673-8.3149-1.4314-1.3901-3.3744-1.8158-5.5595-1.218-1.1258 0.30799-3.5719 2.5505-3.5719 3.2746 0 0.32201-0.15688 0.29821-0.8599-0.13043-0.95558-0.58263-2.0719-0.67504-2.8867-0.23897-0.48401 0.25903-0.51839 0.2265-0.34954-0.33073 0.71429-2.3572 2.9344-4.8798 5.345-6.0732 1.0863-0.53778 1.6566-0.6264 4.0428-0.62819 2.4862-2e-3 2.9312 0.0731 4.2351 0.71349 1.8818 0.92424 3.546 2.5835 4.5896 4.5761 0.77109 1.4723 0.83148 1.7799 0.832 4.2389 5.29e-4 2.4572-0.06241 2.7793-0.85931 4.398-1.0243 2.0807-2.6929 3.7088-4.7823 4.6663-2.0095 0.92087-5.1213 1.0849-7.1108 0.37493zm16.11-0.0624c-0.55924-0.52101-0.57906-0.72471-0.57906-5.9531 0-5.0609 0.03448-5.4481 0.52917-5.9428 0.73697-0.73697 2.1318-0.69645 2.8643 0.0832 0.55109 0.58661 0.57529 0.83502 0.57529 5.907 0 5.1923-0.01183 5.3058-0.61236 5.8699-0.77278 0.72599-2.0193 0.74206-2.7773 0.0358zm24.073-0.0729c-0.55347-0.58915-0.57529-0.82596-0.57529-6.246 0-5.2754 0.02945-5.6192 0.46302-5.4069 0.25466 0.12471 2.9886 0.261 6.0754 0.30286 5.3481 0.0725 5.6378 0.0507 6.1516-0.46302 0.7228-0.7228 0.68997-1.8927-0.0732-2.6097-0.57323-0.53852-0.86915-0.57529-4.6302-0.57529h-4.0178v0.90684c0 1.0253-0.96888 2.0036-1.9844 2.0036-0.32455 0-0.90381-0.24677-1.2872-0.54837-0.65827-0.5178-0.69714-0.67751-0.69714-2.8643 0-2.0787 0.06272-2.3748 0.61236-2.8912 0.59074-0.55497 0.81735-0.57508 6.4161-0.56948 5.0579 5e-3 5.9412 0.0682 6.8731 0.49152 1.9941 0.90578 3.2963 3.0089 3.2963 5.3235 0 2.3592-1.1494 4.2267-3.3073 5.3734-0.92942 0.49391-1.5981 0.57477-5.4901 0.66391l-4.4318 0.1015v3.2345c0 3.0389-0.03703 3.2693-0.61236 3.8098-0.81344 0.76418-2.0438 0.74778-2.7811-0.0371zm32.839 0.0171c-0.29935-0.32742-2.1718-3.5123-4.1611-7.0776-1.9893-3.5653-3.9149-6.7502-4.2791-7.0776-0.416-0.37395-1.0011-0.59532-1.5736-0.59532-0.50121 0-0.91129-0.0481-0.91129-0.10687 0-0.32155 1.9471-3.5158 2.3138-3.7957 0.70179-0.53578 2.0278-0.40216 2.6258 0.26458 0.44162 0.49242 7.4438 12.846 8.9157 15.73 0.59689 1.1693 0.54093 2.0016-0.18013 2.679-0.80672 0.75787-2.0472 0.74883-2.7501-0.02zm6.7322 0.26459c-0.82711-0.62808-0.98853-1.7877-0.98853-7.1016v-5.2812l0.78061 0.40367c0.61479 0.31792 1.791 0.40367 5.537 0.40367h4.7564l0.54837-0.69714c0.72014-0.9155 0.69233-1.5642-0.10106-2.3576-0.6205-0.6205-0.79731-0.64943-3.9688-0.64943h-3.3193v0.80578c0 0.9922-1.0347 2.1046-1.9576 2.1046-0.3623 0-0.99279-0.28762-1.4011-0.63914-0.70723-0.6089-0.74236-0.74772-0.74236-2.9339 0-3.4223-0.1375-3.356 6.7482-3.2544 5.4457 0.0803 5.4667 0.0829 6.5528 0.80228 2.1045 1.3939 3.1339 4.2485 2.4491 6.7915-0.21754 0.80789-0.71332 1.55-1.6355 2.4483l-1.3234 1.289 2.7521 3.2937-0.82473 0.16868c-1.0347 0.21162-1.614 0.6862-2.022 1.6566l-0.31921 0.75917-4.3824-5.3546h-3.894v3.1393c0 2.7753-0.0636 3.2202-0.54837 3.8365-0.60712 0.77183-1.9265 0.95111-2.6964 0.36641zm27.442-0.31874-0.64943-0.64944v-14.312l-3.2412-8e-3c-2.1296-6e-3 -3.3851-0.11895-3.6609-0.33073-0.6839-0.52508-1.06-1.4553-0.87929-2.1751 0.33145-1.3206 0.88262-1.4545 5.9882-1.4545 4.3508 0 4.7433 0.0397 5.2328 0.52917 0.50779 0.50778 0.52917 0.88194 0.52917 9.2604 0 8.3785-0.0214 8.7526-0.52917 9.2604-0.73549 0.7355-1.9884 0.68149-2.7902-0.12026zm-81.581-7.3095c-0.34698-0.13885-1.9731-1.4434-3.6136-2.8989-3.4132-3.0284-4.1134-3.3835-5.516-2.7975l-0.95518 0.3991v-2.6323c0-3.0314 0.3484-3.6907 1.9504-3.6907 0.7705 0 1.4201 0.4724 4.7664 3.4664 2.1309 1.9065 4.0214 3.402 4.2012 3.3233 0.17976-0.0787 1.9783-1.6386 3.9968-3.4664 3.1749-2.875 3.7906-3.3233 4.5641-3.3233 1.604 0 1.9524 0.65833 1.9524 3.6885v2.6301l-0.7276-0.37956c-1.5142-0.78989-1.9133-0.59626-5.7547 2.7922-2.5187 2.2217-3.8328 3.2219-4.1498 3.1582-0.04595-9e-3 -0.36744-0.13037-0.71442-0.26922z" fill="#383f51"/>
<path d="m18.992 115.79c-0.52898-0.67249-0.54837-0.99835-0.54837-9.2143v-8.5172l0.61236-0.57528c0.5017-0.47132 0.9296-0.57529 2.3678-0.57529h1.7554l-0.38338 0.91754c-0.30146 0.7215-0.38337 2.3892-0.38337 7.8052v6.8877h2.1167c1.9252 0 2.5572 0.22569 1.8521 0.66146-0.34433 0.2128-0.34433 2.433 0 2.6458 0.79453 0.49104-0.05259 0.66146-3.2881 0.66146-3.5229 0-3.5573-6e-3 -4.101-0.69714zm59.531 2e-5c-0.51257-0.65163-0.54837-1.037-0.54837-5.9032 0-4.8735 0.03446-5.2431 0.53948-5.7852 0.6908-0.74149 2.3585-0.79456 2.9914-0.0952 0.37773 0.41738 0.43788 1.2352 0.43788 5.9531 0 5.1165-0.03413 5.5034-0.52917 5.9984-0.78784 0.78784-2.2041 0.70556-2.8912-0.16797zm21.941 0.168c-0.50783-0.50782-0.65077-0.99733-0.54082-1.8521 0.0732-0.56893 5.8074-10.864 6.4476-11.576 1.139-1.2664 3.3536-0.43467 3.3536 1.2594 0 0.89862-5.7472 11.459-6.6584 12.234-0.7256 0.61763-1.9493 0.58652-2.602-0.0661zm37.352-0.0832c-1.2137-1.292-0.30768-3.3564 1.4731-3.3564 0.94024 0 1.9204 1.0128 1.9204 1.9844 0 1.7289-2.2164 2.625-3.3935 1.372zm-98.339-7.3598c-1.8358-1.0263-1.4726-3.4348 0.57777-3.8307 1.6802-0.32443 2.8779 1.9475 1.7373 3.2955-0.57787 0.68292-1.62 0.92384-2.3151 0.53521zm117.08-8.895c-7.9e-4 -0.69122-0.17242-1.5842-0.38118-1.9844l-0.37955-0.7276h3.2455c3.0504 0 3.2801 0.0368 3.8208 0.61237 0.76313 0.81231 0.73336 1.8994-0.0741 2.7069-0.60741 0.60741-0.82998 0.64943-3.4396 0.64943h-2.7902l-2e-3 -1.2568z" fill="#30e3ca"/>
<text x="41.957169" y="153.54347" fill="#000000" font-family="sans-serif" font-size="10.583px" style="line-height:1.25" xml:space="preserve"><tspan x="41.957169" y="153.54347" font-family="Jomolhari" stroke-width=".26458"/></text>
<g transform="translate(-65.088 -.52917)" fill="#383f51" aria-label="CABINET">
<path d="m89.58 92.762q-0.51125 0.26527-1.0659 0.40032-0.55466 0.13505-1.1576 0.13505-1.799 0-2.8505-1.0032-1.0514-1.008-1.0514-2.7299 0-1.7267 1.0514-2.7299 1.0514-1.008 2.8505-1.008 0.60289 0 1.1576 0.13505 0.55466 0.13505 1.0659 0.40032v1.4903q-0.51608-0.35209-1.0177-0.51608-0.50161-0.16399-1.0563-0.16399-0.99356 0-1.5627 0.63665-0.56913 0.63665-0.56913 1.7556 0 1.1141 0.56913 1.7508 0.56913 0.63665 1.5627 0.63665 0.55466 0 1.0563-0.16399 0.5016-0.16399 1.0177-0.51608z"/>
<path d="m95.488 91.845h-2.9035l-0.4582 1.3119h-1.8666l2.6672-7.2009h2.2138l2.6672 7.2009h-1.8666zm-2.4405-1.336h1.9727l-0.98392-2.8649z"/>
<path d="m101.65 88.744q0.4389 0 0.66559-0.19292t0.22669-0.56913q0-0.37138-0.22669-0.56431-0.22669-0.19775-0.66559-0.19775h-1.0273v1.5241zm0.0627 3.1495q0.55948 0 0.83923-0.23633 0.28456-0.23633 0.28456-0.71382 0-0.46784-0.27974-0.69935-0.27974-0.23633-0.84405-0.23633h-1.09v1.8858zm1.7267-2.59q0.59807 0.17363 0.92604 0.64148 0.32798 0.46784 0.32798 1.1479 0 1.0418-0.70418 1.553-0.70418 0.51125-2.1415 0.51125h-3.082v-7.2009h2.7878q1.5 0 2.1704 0.45338 0.67524 0.45337 0.67524 1.4518 0 0.52572-0.24598 0.8971-0.24598 0.36656-0.71383 0.54501z"/>
<path d="m106.29 85.956h1.8569v7.2009h-1.8569z"/>
<path d="m109.97 85.956h2.074l2.619 4.9389v-4.9389h1.7604v7.2009h-2.074l-2.619-4.9389v4.9389h-1.7604z"/>
<path d="m118.23 85.956h5.0112v1.4035h-3.1543v1.3408h2.9662v1.4035h-2.9662v1.6495h3.2604v1.4035h-5.1173z"/>
<path d="m124.12 85.956h6.6366v1.4035h-2.3875v5.7974h-1.8569v-5.7974h-2.3923z"/>
</g>
</g>
</svg>

