<?xml version="1.0" encoding="UTF-8" standalone="no"?>
<svg
   xmlns:dc="http://purl.org/dc/elements/1.1/"
   xmlns:cc="http://creativecommons.org/ns#"
   xmlns:rdf="http://www.w3.org/1999/02/22-rdf-syntax-ns#"
   xmlns:svg="http://www.w3.org/2000/svg"
   xmlns="http://www.w3.org/2000/svg"
   xmlns:sodipodi="http://sodipodi.sourceforge.net/DTD/sodipodi-0.dtd"
   xmlns:inkscape="http://www.inkscape.org/namespaces/inkscape"
   sodipodi:docname="marc.svg"
   inkscape:version="1.0 (4035a4fb49, 2020-05-01)"
   id="svg8"
   version="1.1"
   viewBox="0 0 145.04568 31.200996"
   height="31.200996mm"
   width="145.04568mm">
  <defs
     id="defs2" />
  <sodipodi:namedview
     inkscape:window-maximized="1"
     inkscape:window-y="0"
     inkscape:window-x="0"
     inkscape:window-height="1016"
     inkscape:window-width="1920"
     fit-margin-bottom="0"
     fit-margin-right="0"
     fit-margin-left="0"
     fit-margin-top="0"
     showgrid="false"
     inkscape:document-rotation="0"
     inkscape:current-layer="layer1"
     inkscape:document-units="mm"
     inkscape:cy="237.61766"
     inkscape:cx="330.58167"
     inkscape:zoom="1.42"
     inkscape:pageshadow="2"
     inkscape:pageopacity="0.0"
     borderopacity="1.0"
     bordercolor="#666666"
     pagecolor="#ffffff"
     id="base">
    <inkscape:grid
       originy="-85.296994"
       originx="-18.366933"
       id="grid1008"
       type="xygrid" />
  </sodipodi:namedview>
  <metadata
     id="metadata5">
    <rdf:RDF>
      <cc:Work
         rdf:about="">
        <dc:format>image/svg+xml</dc:format>
        <dc:type
           rdf:resource="http://purl.org/dc/dcmitype/StillImage" />
        <dc:title></dc:title>
      </cc:Work>
    </rdf:RDF>
  </metadata>
  <g
     transform="translate(-18.366934,-85.296995)"
     id="layer1"
     inkscape:groupmode="layer"
     inkscape:label="Layer 1">
    <path
       inkscape:export-ydpi="198.42953"
       inkscape:export-xdpi="198.42953"
       d="m 27.458727,115.78562 c -0.695741,-0.88449 -0.695741,-1.68998 0,-2.57447 0.440255,-0.5597 0.772289,-0.69714 1.68411,-0.69714 2.09519,0 3.181443,-1.59806 2.118142,-3.11613 -0.338807,-0.48372 -0.664327,-0.58804 -1.834859,-0.58804 -2.372149,0 -3.548291,-0.71033 -3.565682,-2.1535 -0.01283,-1.06468 0.763591,-1.8272 2.034021,-1.9976 1.330715,-0.17849 2.014509,-0.85021 2.014509,-1.97896 0,-1.31048 -0.837321,-1.80744 -3.045317,-1.80744 -1.771747,0 -2.779488,-0.28412 -3.190388,-0.899497 -0.33993,-0.509099 -0.21756,-1.871659 0.224812,-2.503229 0.409736,-0.58498 0.548407,-0.60644 3.373437,-0.52189 2.823829,0.0845 2.997216,0.12363 4.176532,0.94262 2.212093,1.53621 3.180513,4.534556 2.212712,6.850826 -0.382582,0.91565 -0.372785,0.96199 0.357883,1.69266 2.3747,2.3747 2.239531,6.47301 -0.283659,8.60053 -1.261276,1.06349 -2.364412,1.4484 -4.151088,1.4484 -1.388299,0 -1.642349,-0.0833 -2.125165,-0.69714 z m 17.52263,0.22008 c -3.010654,-1.07447 -5.399043,-3.48385 -6.281005,-6.33623 -0.172996,-0.55949 -0.139151,-0.57846 0.55861,-0.31317 0.88679,0.33716 2.287947,0.12166 2.738456,-0.42117 0.420518,-0.50669 0.787939,-0.49755 0.787939,0.0196 0,0.22521 0.565547,0.97265 1.256771,1.66097 2.507142,2.49662 5.592797,2.52809 8.041908,0.082 2.450742,-2.44769 2.382514,-5.83852 -0.167304,-8.31487 -1.431351,-1.39011 -3.374398,-1.81582 -5.5595,-1.21804 -1.125823,0.30799 -3.571875,2.55048 -3.571875,3.27463 0,0.32201 -0.156875,0.29821 -0.859896,-0.13043 -0.955581,-0.58263 -2.0719,-0.67504 -2.886702,-0.23897 -0.484011,0.25903 -0.51839,0.2265 -0.349536,-0.33073 0.714288,-2.35723 2.934398,-4.879806 5.344957,-6.073166 1.08631,-0.53778 1.656617,-0.6264 4.042844,-0.62819 2.486192,-0.002 2.931229,0.0731 4.235111,0.71349 1.881847,0.92424 3.546005,2.583486 4.589609,4.576096 0.771093,1.47228 0.831479,1.77993 0.832003,4.2389 5.29e-4,2.4572 -0.06241,2.77932 -0.859308,4.39805 -1.024332,2.08072 -2.692856,3.70875 -4.782323,4.66627 -2.009487,0.92087 -5.121299,1.08494 -7.110759,0.37493 z m 16.11014,-0.0624 c -0.559241,-0.52101 -0.579056,-0.72471 -0.579056,-5.95312 0,-5.06088 0.03448,-5.44814 0.529167,-5.94282 0.736973,-0.73697 2.131848,-0.69645 2.864297,0.0832 0.551093,0.58661 0.575286,0.83502 0.575286,5.907 0,5.19233 -0.01183,5.30576 -0.612365,5.86993 -0.772779,0.72599 -2.01926,0.74206 -2.777329,0.0358 z m 24.073314,-0.0729 c -0.553474,-0.58915 -0.575286,-0.82596 -0.575286,-6.24601 0,-5.27538 0.02945,-5.61923 0.463021,-5.40691 0.254661,0.12471 2.988611,0.261 6.075447,0.30286 5.348098,0.0725 5.637818,0.0507 6.151568,-0.46302 0.7228,-0.7228 0.68997,-1.89269 -0.0732,-2.60968 -0.57323,-0.53852 -0.86915,-0.57529 -4.630214,-0.57529 h -4.017843 v 0.90684 c 0,1.02532 -0.968878,2.00358 -1.984375,2.00358 -0.324554,0 -0.903809,-0.24677 -1.287235,-0.54837 -0.658268,-0.5178 -0.69714,-0.67751 -0.69714,-2.8643 0,-2.078706 0.06272,-2.374846 0.612365,-2.891206 0.590738,-0.55497 0.817353,-0.57508 6.416146,-0.56948 5.057946,0.005 5.941196,0.0682 6.873051,0.49152 1.994084,0.90578 3.296344,3.008896 3.296344,5.323496 0,2.35921 -1.14941,4.22666 -3.307284,5.37337 -0.929425,0.49391 -1.598095,0.57477 -5.490101,0.66391 l -4.431771,0.1015 v 3.23449 c 0,3.03888 -0.03703,3.26928 -0.612365,3.80978 -0.813435,0.76418 -2.043763,0.74778 -2.781099,-0.0371 z m 32.839349,0.0171 c -0.29935,-0.32742 -2.17184,-3.51234 -4.16111,-7.0776 -1.98926,-3.56526 -3.91486,-6.75018 -4.27911,-7.0776 -0.416,-0.37395 -1.00113,-0.59532 -1.57355,-0.59532 -0.50121,0 -0.91129,-0.0481 -0.91129,-0.10687 0,-0.32155 1.94714,-3.515826 2.31377,-3.795726 0.70179,-0.53578 2.02784,-0.40216 2.62579,0.26458 0.44162,0.49242 7.44383,12.846096 8.91571,15.729566 0.59689,1.16934 0.54093,2.00159 -0.18013,2.679 -0.80672,0.75787 -2.04715,0.74883 -2.75008,-0.02 z m 6.73222,0.26459 c -0.82711,-0.62808 -0.98853,-1.78773 -0.98853,-7.10163 v -5.28123 l 0.78061,0.40367 c 0.61479,0.31792 1.79101,0.40367 5.53705,0.40367 h 4.75643 l 0.54837,-0.69714 c 0.72014,-0.9155 0.69233,-1.56421 -0.10106,-2.3576 -0.6205,-0.6205 -0.79731,-0.64943 -3.96875,-0.64943 h -3.31932 v 0.80578 c 0,0.9922 -1.03471,2.10464 -1.95759,2.10464 -0.3623,0 -0.99279,-0.28762 -1.40109,-0.63914 -0.70723,-0.6089 -0.74236,-0.74772 -0.74236,-2.93393 0,-3.422296 -0.1375,-3.355986 6.74817,-3.254406 5.44566,0.0803 5.46673,0.0829 6.5528,0.80228 2.10448,1.39391 3.1339,4.248466 2.44914,6.791466 -0.21754,0.80789 -0.71332,1.55004 -1.63553,2.4483 l -1.32336,1.289 1.37606,1.64683 1.37606,1.64683 -0.82473,0.16868 c -1.03474,0.21162 -1.614,0.6862 -2.02202,1.65659 l -0.31921,0.75917 -2.19118,-2.6773 -2.19118,-2.67729 h -1.94699 -1.94699 v 3.13932 c 0,2.77533 -0.0636,3.22015 -0.54837,3.83646 -0.60712,0.77183 -1.92646,0.95111 -2.69643,0.36641 z m 27.44215,-0.31874 -0.64943,-0.64944 v -7.15577 -7.15578 l -3.24115,-0.008 c -2.12964,-0.006 -3.38511,-0.11895 -3.66094,-0.33073 -0.6839,-0.52508 -1.05995,-1.455336 -0.87929,-2.175136 0.33145,-1.3206 0.88262,-1.45447 5.98817,-1.45447 4.35085,0 4.74331,0.0397 5.23279,0.52917 0.50779,0.50778 0.52917,0.88194 0.52917,9.260406 0,8.37848 -0.0214,8.75263 -0.52917,9.26042 -0.73549,0.7355 -1.98839,0.68149 -2.79015,-0.12026 z m -81.581344,-7.30948 c -0.346983,-0.13885 -1.973096,-1.44335 -3.613584,-2.8989 -3.413207,-3.02841 -4.113385,-3.38351 -5.515981,-2.79747 l -0.95518,0.3991 v -2.63233 c 0,-3.031406 0.348401,-3.690666 1.950405,-3.690666 0.770499,0 1.420069,0.4724 4.766403,3.466386 2.130883,1.90652 4.021402,3.40199 4.201157,3.32327 0.179756,-0.0787 1.978306,-1.6386 3.99678,-3.4664 3.174942,-2.875006 3.790556,-3.323256 4.564063,-3.323256 1.603968,0 1.952442,0.65833 1.952442,3.688476 v 2.63014 l -0.727604,-0.37956 c -1.514229,-0.78989 -1.913302,-0.59626 -5.754687,2.79219 -2.518654,2.22168 -3.832847,3.22186 -4.149794,3.15823 -0.04595,-0.009 -0.367435,-0.13037 -0.71442,-0.26922 z"
       style="fill:#383f51;fill-opacity:1;stroke-width:0.264583"
       id="path936" />
    <path
       inkscape:export-ydpi="198.42953"
       inkscape:export-xdpi="198.42953"
       d="m 18.99206,115.78562 c -0.528977,-0.67249 -0.54837,-0.99835 -0.54837,-9.2143 v -8.517156 l 0.612365,-0.57528 c 0.501698,-0.47132 0.929602,-0.57529 2.36775,-0.57529 h 1.755384 l -0.383375,0.91754 c -0.301461,0.7215 -0.383374,2.389186 -0.383374,7.805206 v 6.88767 h 2.116667 c 1.925218,0 2.557163,0.22569 1.852083,0.66146 -0.344331,0.2128 -0.344331,2.43302 0,2.64583 0.794528,0.49104 -0.05259,0.66146 -3.288088,0.66146 -3.522869,0 -3.557272,-0.006 -4.101042,-0.69714 z m 59.531252,2e-5 c -0.512573,-0.65163 -0.548371,-1.037 -0.548371,-5.90324 0,-4.87353 0.03446,-5.24308 0.539475,-5.78515 0.690798,-0.74149 2.358483,-0.79456 2.991393,-0.0952 0.377727,0.41738 0.437882,1.2352 0.437882,5.95312 0,5.1165 -0.03413,5.50341 -0.529166,5.99844 -0.787839,0.78784 -2.204093,0.70556 -2.891213,-0.16797 z m 21.941208,0.168 c -0.507827,-0.50782 -0.650767,-0.99733 -0.540817,-1.85208 0.0732,-0.56893 5.807437,-10.86372 6.447637,-11.57552 1.13897,-1.26638 3.35359,-0.43467 3.35359,1.25945 0,0.89862 -5.74722,11.45869 -6.65841,12.2343 -0.7256,0.61763 -1.94933,0.58652 -2.602,-0.0661 z m 37.35237,-0.0832 c -1.21374,-1.29196 -0.30768,-3.35638 1.47308,-3.35638 0.94024,0 1.92038,1.0128 1.92038,1.98437 0,1.7289 -2.21635,2.62499 -3.39346,1.37201 z m -98.338825,-7.35978 c -1.835849,-1.02632 -1.472588,-3.43477 0.577774,-3.83068 1.680168,-0.32443 2.877916,1.94753 1.737331,3.29547 -0.577873,0.68292 -1.619951,0.92384 -2.315105,0.53521 z M 156.55455,99.615623 c -7.9e-4,-0.691219 -0.17242,-1.584189 -0.38118,-1.984379 l -0.37955,-0.7276 h 3.24548 c 3.05036,0 3.28006,0.0368 3.82076,0.61237 0.76313,0.81231 0.73336,1.89945 -0.0741,2.706946 -0.60741,0.60741 -0.82998,0.64943 -3.43959,0.64943 h -2.79015 l -0.002,-1.256767 z"
       style="fill:#30e3ca;fill-opacity:1;stroke-width:0.264583"
       id="path934" />
    <text
       id="text984"
       y="153.54347"
       x="41.957169"
       style="font-style:normal;font-weight:normal;font-size:10.5833px;line-height:1.25;font-family:sans-serif;fill:#000000;fill-opacity:1;stroke:none;stroke-width:0.264583"
       xml:space="preserve"><tspan
         style="font-style:normal;font-variant:normal;font-weight:normal;font-stretch:normal;font-family:Jomolhari;-inkscape-font-specification:Jomolhari;stroke-width:0.264583"
         y="153.54347"
         x="41.957169"
         id="tspan982"
         sodipodi:role="line" /></text>
    <g
       transform="translate(-65.087535,-0.52916663)"
       style="font-style:normal;font-weight:normal;font-size:9.87778px;line-height:1.25;font-family:sans-serif;fill:#383f51;fill-opacity:1;stroke:none;stroke-width:0.264583"
       id="text1012"
       aria-label="CABINET">
      <path
         id="path1014"
         style="font-style:normal;font-variant:normal;font-weight:bold;font-stretch:normal;font-size:9.87778px;font-family:sans-serif;-inkscape-font-specification:'sans-serif Bold';fill:#383f51;fill-opacity:1;stroke-width:0.264583"
         d="m 89.579849,92.761829 q -0.511252,0.265272 -1.065913,0.40032 -0.55466,0.135048 -1.157552,0.135048 -1.799029,0 -2.850472,-1.003212 -1.051443,-1.008035 -1.051443,-2.729894 0,-1.726682 1.051443,-2.729894 1.051443,-1.008035 2.850472,-1.008035 0.602892,0 1.157552,0.135048 0.554661,0.135048 1.065913,0.40032 v 1.490349 q -0.516076,-0.352089 -1.017681,-0.516076 -0.501606,-0.163986 -1.056267,-0.163986 -0.993565,0 -1.562695,0.636653 -0.56913,0.636654 -0.56913,1.755621 0,1.114144 0.56913,1.750798 0.56913,0.636653 1.562695,0.636653 0.554661,0 1.056267,-0.163986 0.501605,-0.163987 1.017681,-0.516076 z" />
      <path
         id="path1016"
         style="font-style:normal;font-variant:normal;font-weight:bold;font-stretch:normal;font-size:9.87778px;font-family:sans-serif;-inkscape-font-specification:'sans-serif Bold';fill:#383f51;fill-opacity:1;stroke-width:0.264583"
         d="m 95.488188,91.845433 h -2.903527 l -0.458197,1.311893 h -1.866553 l 2.667193,-7.200939 h 2.213818 l 2.667193,7.200939 h -1.866553 z m -2.440506,-1.336008 h 1.972662 l -0.983919,-2.864941 z" />
      <path
         id="path1018"
         style="font-style:normal;font-variant:normal;font-weight:bold;font-stretch:normal;font-size:9.87778px;font-family:sans-serif;-inkscape-font-specification:'sans-serif Bold';fill:#383f51;fill-opacity:1;stroke-width:0.264583"
         d="m 101.64733,88.744158 q 0.4389,0 0.66559,-0.192925 0.22669,-0.192925 0.22669,-0.56913 0,-0.371381 -0.22669,-0.564306 -0.22669,-0.197749 -0.66559,-0.197749 H 100.62 v 1.52411 z m 0.0627,3.149507 q 0.55948,0 0.83923,-0.236334 0.28456,-0.236333 0.28456,-0.713824 0,-0.467844 -0.27974,-0.699354 -0.27974,-0.236334 -0.84405,-0.236334 H 100.62 v 1.885846 z m 1.72668,-2.590023 q 0.59807,0.173633 0.92604,0.641477 0.32798,0.467844 0.32798,1.147905 0,1.041797 -0.70418,1.55305 -0.70418,0.511252 -2.14147,0.511252 h -3.081985 v -7.200939 h 2.787775 q 1.49999,0 2.17041,0.453375 0.67524,0.453374 0.67524,1.451763 0,0.525721 -0.24598,0.897103 -0.24598,0.366558 -0.71383,0.545014 z" />
      <path
         id="path1020"
         style="font-style:normal;font-variant:normal;font-weight:bold;font-stretch:normal;font-size:9.87778px;font-family:sans-serif;-inkscape-font-specification:'sans-serif Bold';fill:#383f51;fill-opacity:1;stroke-width:0.264583"
         d="m 106.29201,85.956387 h 1.8569 v 7.200939 h -1.8569 z" />
      <path
         id="path1022"
         style="font-style:normal;font-variant:normal;font-weight:bold;font-stretch:normal;font-size:9.87778px;font-family:sans-serif;-inkscape-font-specification:'sans-serif Bold';fill:#383f51;fill-opacity:1;stroke-width:0.264583"
         d="m 109.96723,85.956387 h 2.07395 l 2.61896,4.938889 v -4.938889 h 1.76045 v 7.200939 h -2.07395 l -2.61896,-4.938889 v 4.938889 h -1.76045 z" />
      <path
         id="path1024"
         style="font-style:normal;font-variant:normal;font-weight:bold;font-stretch:normal;font-size:9.87778px;font-family:sans-serif;-inkscape-font-specification:'sans-serif Bold';fill:#383f51;fill-opacity:1;stroke-width:0.264583"
         d="m 118.23409,85.956387 h 5.01123 v 1.403532 h -3.15433 v 1.340831 h 2.96623 v 1.403532 h -2.96623 v 1.649512 h 3.26044 v 1.403532 h -5.11734 z" />
      <path
         id="path1026"
         style="font-style:normal;font-variant:normal;font-weight:bold;font-stretch:normal;font-size:9.87778px;font-family:sans-serif;-inkscape-font-specification:'sans-serif Bold';fill:#383f51;fill-opacity:1;stroke-width:0.264583"
         d="m 124.12313,85.956387 h 6.63664 v 1.403532 h -2.38746 v 5.797407 h -1.8569 v -5.797407 h -2.39228 z" />
    </g>
  </g>
</svg>
